# xmcd CD database file
#
# Track frame offsets:
#	150
#	30378
#	50255
#	72758
#	95705
#	109960
#	126530
#	149483
#	172960
#	201163
#	223288
#	252390
#
# Disc length: 3519 seconds
#
# Revision: 0
# Processed by: cddbd v1.4PL0 Copyright (c) Steve Scherf et al.
# Submitted via: CDex 1.50beta10
#
DISCID=bc0dbd0c
DTITLE=Ken Peplowski - It's a lonesome old town
DYEAR=1995
DGENRE=Jazz
TTITLE0=More than ever
TTITLE1=They can't take that away from me
TTITLE2=It's a lonesome old town
TTITLE3=These foolish things (Remind me of you)
TTITLE4=Supposin'
TTITLE5=Bonicrates de muletas
TTITLE6=It never entered my mind
TTITLE7=In my life
TTITLE8=Last night when we were young
TTITLE9=The eternal triangle
TTITLE10=Zingaro
TTITLE11=Crimehouse
EXTD=YEAR: 1995
EXTT0=
EXTT1=
EXTT2=
EXTT3=
EXTT4=
EXTT5=
EXTT6=
EXTT7=
EXTT8=
EXTT9=
EXTT10=
EXTT11=
PLAYORDER=
